<?xml version="1.0" encoding="UTF-8"?>
<svg version="1.1" xmlns="http://www.w3.org/2000/svg" width="1962" height="620">
<path d="M0 0 C647.46 0 1294.92 0 1962 0 C1962 204.6 1962 409.2 1962 620 C1314.54 620 667.08 620 0 620 C0 415.4 0 210.8 0 0 Z " fill="#FEFEFE" transform="translate(0,0)"/>
<path d="M0 0 C0.7523291 0.10715332 1.5046582 0.21430664 2.27978516 0.32470703 C12.76211281 1.83158276 22.81606454 4.07447338 33 7 C34.79244141 7.47953125 34.79244141 7.47953125 36.62109375 7.96875 C44.37979399 10.07626113 51.69859303 12.64657326 59 16 C60.23266602 16.56315918 60.23266602 16.56315918 61.49023438 17.13769531 C80.76946214 26.00396931 98.38129481 35.76795312 115 49 C116.24885986 49.98395752 116.24885986 49.98395752 117.52294922 50.98779297 C124.53942202 56.60521832 131.0354045 62.63412886 137.375 69 C137.8747937 69.50033752 138.3745874 70.00067505 138.88952637 70.51617432 C147.43189559 79.10110218 155.14737664 88.00031786 162 98 C162.46760742 98.6712793 162.93521484 99.34255859 163.41699219 100.03417969 C197.56104829 149.40559186 211.34639567 211.12552434 200.78540039 270.28125 C194.63055111 302.41229593 182.32830006 334.41388445 163 361 C162.31679688 361.95519531 161.63359375 362.91039062 160.9296875 363.89453125 C147.281796 382.55643306 131.36186961 400.08655188 112.66210938 413.77783203 C111.03452167 414.97461582 109.43094826 416.20384142 107.828125 417.43359375 C79.1511619 439.11278747 44.98499481 451.97773151 10 459 C8.80769775 459.23976563 8.80769775 459.23976563 7.59130859 459.484375 C-22.7958515 465.47530013 -53.74268548 463.87901189 -84 458 C-84 457.67 -84 457.34 -84 457 C-80.28056733 456.15747658 -76.74360117 455.84936335 -72.9375 455.6875 C-49.3252149 454.01844035 -26.66487813 446.37029567 -6 435 C-4.948125 434.43667969 -3.89625 433.87335938 -2.8125 433.29296875 C30.52441753 414.75798986 55.53503038 382.3154537 69 347 C69.29358398 346.23026855 69.58716797 345.46053711 69.88964844 344.66748047 C77.90479867 323.18396947 82.17824708 300.95020263 82.24023438 278.04589844 C82.24988759 275.89998809 82.28097479 273.75505979 82.3125 271.609375 C82.50266648 246.79416394 74.59659604 222.01357699 57 204 C45.33748204 193.77709937 32.91144255 188.39291867 18 185 C17.236875 184.80664062 16.47375 184.61328125 15.6875 184.4140625 C-12.13021513 180.1281936 -41.6741807 189.02260782 -64.1875 205.3125 C-69.26602037 209.2294439 -73.71242425 213.49292302 -78.13671875 218.12890625 C-78.75160156 218.74636719 -79.36648437 219.36382812 -80 220 C-80.33 220 -80.66 220 -81 220 C-80.35628723 213.40194416 -79.32318793 206.99366485 -78 200.5 C-77.68385742 198.93088867 -77.68385742 198.93088867 -77.36132812 197.33007812 C-75.00676891 185.79208572 -72.44739131 174.298583 -69.90270996 162.80136108 C-67.36648954 151.33985583 -64.92149146 139.87324681 -62.671875 128.3515625 C-61.22376194 120.98026478 -59.58542437 113.66414753 -57.8828125 106.34790039 C-55.93839122 97.91720354 -54.2529667 89.43966254 -52.61132812 80.9453125 C-52.41474609 79.93726563 -52.21816406 78.92921875 -52.015625 77.890625 C-51.84321289 76.99375977 -51.67080078 76.09689453 -51.49316406 75.17285156 C-51 73 -51 73 -50 71 C-76.4 71 -102.8 71 -130 71 C-130.33 74.3 -130.66 77.6 -131 81 C-131.51708553 83.97800528 -132.06238306 86.92498864 -132.671875 89.8828125 C-132.91831757 91.10797073 -132.91831757 91.10797073 -133.16973877 92.35787964 C-133.69195222 94.9478626 -134.22090363 97.53641545 -134.75 100.125 C-135.08897152 101.80329865 -135.42751543 103.48168373 -135.765625 105.16015625 C-137.54554116 113.97324252 -139.36727838 122.77735981 -141.20703125 131.578125 C-144.77004304 148.62796083 -148.24847784 165.69526865 -151.73803711 182.76025391 C-152.53538865 186.65944496 -153.33324335 190.55853247 -154.1315918 194.45751953 C-158.11958973 213.93426924 -162.09622882 233.41259237 -165.97805786 252.91081238 C-167.62961146 261.19105073 -169.33039738 269.45991229 -171.06100464 277.72395325 C-173.53763853 289.55075254 -175.97313834 301.38591459 -178.39140129 313.2247715 C-179.11457264 316.76478782 -179.83976742 320.30436391 -180.56958008 323.84301758 C-181.29314612 327.35165968 -182.01155758 330.86132304 -182.72657204 334.37171745 C-183.12085825 336.30128765 -183.52012597 338.2298379 -183.91960144 340.15834045 C-186.15458312 351.17595649 -188.27228054 362.36291943 -188.23046875 373.640625 C-188.22853516 374.89617187 -188.22660156 376.15171875 -188.22460938 377.4453125 C-188.21236328 378.70085937 -188.20011719 379.95640625 -188.1875 381.25 C-188.18685547 382.52101563 -188.18621094 383.79203125 -188.18554688 385.1015625 C-188.15144186 392.45308783 -187.82116972 399.69357393 -187 407 C-191.49916443 404.75041779 -194.56639415 401.53718767 -198.0234375 397.9765625 C-200.10500637 395.82870599 -200.10500637 395.82870599 -203.0625 393.5 C-206.80729925 390.31293681 -209.83084923 386.74813024 -213 383 C-213.8146875 382.07316406 -214.629375 381.14632813 -215.46875 380.19140625 C-256.53097571 333.21916378 -274.18083971 272.96965119 -270.79785156 211.31591797 C-269.59609504 195.46406923 -266.39452959 180.25504481 -262 165 C-261.80180664 164.29907227 -261.60361328 163.59814453 -261.39941406 162.87597656 C-248.92409853 119.62376853 -220.53499125 78.52071663 -185 51 C-184.01902344 50.21367187 -183.03804688 49.42734375 -182.02734375 48.6171875 C-156.11977426 27.99936834 -126.07958988 13.18841489 -94 5 C-92.96842773 4.73195557 -92.96842773 4.73195557 -91.91601562 4.45849609 C-62.21239311 -3.11798089 -30.3298415 -4.5903492 0 0 Z " fill="#0284C7" transform="translate(328,82)"/>
<path d="M0 0 C11.4675 -0.061875 22.935 -0.12375 34.75 -0.1875 C38.34745117 -0.21481201 41.94490234 -0.24212402 45.65136719 -0.27026367 C50.10400391 -0.28381348 50.10400391 -0.28381348 52.20001221 -0.28633118 C53.63868 -0.29088525 55.07733762 -0.30132464 56.51593018 -0.31672668 C71.48477968 -0.46873144 84.92983792 1.20583973 96.3125 11.75 C103.32682922 19.29635419 104.68448543 26.08865644 104.38671875 36.3359375 C103.55191472 44.24549486 100.59511402 50.40488598 95 56 C93.05148442 57.47405434 91.09606004 58.73261486 89 60 C91.70789471 62.08299593 94.47883871 63.94116944 97.375 65.75 C103.29094681 69.70045133 108.25578696 74.420402 110.52734375 81.37109375 C112.23061173 90.84464211 112.63768247 101.81034884 107 110 C99.28937207 120.92671886 87.82618901 125.11130849 75.09918213 127.58758545 C68.53072175 128.461664 61.88723183 128.24151052 55.2734375 128.1953125 C53.85392413 128.19236513 52.43440857 128.19032897 51.01489258 128.18920898 C45.8015615 128.17880201 40.58827722 128.15087973 35.375 128.125 C23.70125 128.08375 12.0275 128.0425 0 128 C0 85.76 0 43.52 0 0 Z " fill="#131A28" transform="translate(590,186)"/>
<path d="M0 0 C8.25 0 16.5 0 25 0 C35.08220378 28.53800257 44.7565932 57.17927741 54 86 C54.26451462 85.15634384 54.52902924 84.31268768 54.80155945 83.44346619 C57.31512411 75.42741776 59.82999424 67.41178026 62.34627056 59.3965826 C63.6393441 55.27754729 64.93194177 51.15836399 66.22338867 47.03881836 C67.47362031 43.05080906 68.72518446 39.06322006 69.97760963 35.07589912 C70.45121937 33.56730093 70.92437762 32.05856091 71.39703941 30.54966545 C74.49441259 20.66315787 77.69874927 10.82050551 81 1 C90.9 1 100.8 1 111 1 C107.62585034 13.37188209 107.62585034 13.37188209 106.0546875 17.84765625 C105.70470703 18.85119141 105.35472656 19.85472656 104.99414062 20.88867188 C104.62482422 21.93603516 104.25550781 22.98339844 103.875 24.0625 C103.07021463 26.36585122 102.26552996 28.66923763 101.4609375 30.97265625 C101.05198242 32.13941895 100.64302734 33.30618164 100.22167969 34.50830078 C98.3000441 40.00055342 96.40065338 45.50045904 94.5 51 C93.75011753 53.16670735 93.00011726 55.33337393 92.25 57.5 C91.87875 58.5725 91.5075 59.645 91.125 60.75 C90 64 88.875 67.25 87.75 70.5 C87.37842773 71.5734668 87.00685547 72.64693359 86.62402344 73.75292969 C85.87736817 75.90986172 85.13062402 78.06676299 84.38378906 80.22363281 C82.45686803 85.78898464 80.53170401 91.35493522 78.609375 96.921875 C74.79346674 107.967884 70.96301495 119.00582948 67 130 C58.75 130 50.5 130 42 130 C37.50080559 118.75201398 37.50080559 118.75201398 35.9128418 114.20922852 C35.37659431 112.68066978 35.37659431 112.68066978 34.82951355 111.12123108 C34.27001762 109.51628029 34.27001762 109.51628029 33.69921875 107.87890625 C33.2997554 106.7395311 32.90029205 105.60015594 32.48872375 104.42625427 C31.21957553 100.80572509 29.9532725 97.18421062 28.6875 93.5625 C23.24380916 77.99630449 17.77107605 62.44830794 12 47 C11.61630249 48.1135083 11.61630249 48.1135083 11.22485352 49.24951172 C8.84189483 56.16428557 6.4576497 63.07861365 4.072052 69.99247742 C2.60736185 74.23783218 1.14494216 78.4839622 -0.31640625 82.73046875 C-5.76080877 98.52962706 -11.35269677 114.27243736 -17 130 C-25.25 130 -33.5 130 -42 130 C-46.499753 118.75061751 -46.499753 118.75061751 -47.91259766 114.64111328 C-48.23524094 113.706689 -48.55788422 112.77226471 -48.89030457 111.80952454 C-49.39706474 110.32986458 -49.39706474 110.32986458 -49.9140625 108.8203125 C-50.46535576 107.2207093 -50.46535576 107.2207093 -51.02778625 105.58879089 C-52.22910782 102.10163072 -53.42704872 98.61331925 -54.625 95.125 C-55.46400277 92.68765073 -56.30328091 90.25039623 -57.14282227 87.81323242 C-58.44383294 84.03638987 -59.74477262 80.25952349 -61.04463196 76.48228455 C-64.05751891 67.72820818 -67.08160927 58.97806112 -70.11328125 50.23046875 C-70.5219342 49.05121826 -70.93058716 47.87196777 -71.35162354 46.65698242 C-72.93041778 42.10166388 -74.50949432 37.54644358 -76.0894165 32.99151611 C-77.17351661 29.86565384 -78.25675012 26.73949238 -79.33984375 23.61328125 C-79.65262772 22.71232224 -79.96541168 21.81136322 -80.28767395 20.88310242 C-82.57744485 14.27123349 -84.78687122 7.63938634 -87 1 C-76.77 1 -66.54 1 -56 1 C-49.48406326 20.14056416 -43.33710795 39.3675951 -37.375 58.6875 C-37.01003418 59.86526001 -36.64506836 61.04302002 -36.26904297 62.25646973 C-35.22412009 65.63178683 -34.18524975 69.00890262 -33.1484375 72.38671875 C-32.83014984 73.41361313 -32.51186218 74.44050751 -32.18392944 75.4985199 C-31.89555206 76.44348831 -31.60717468 77.38845673 -31.31005859 78.36206055 C-31.05598236 79.18868698 -30.80190613 80.01531342 -30.54013062 80.86698914 C-30 83 -30 83 -30 86 C-29.34 86 -28.68 86 -28 86 C-27.66742187 84.2675 -27.66742187 84.2675 -27.328125 82.5 C-25.69217849 75.16959159 -23.15337715 68.10555382 -20.75 61 C-20.2259536 59.4398738 -19.7021967 57.87965034 -19.17871094 56.31933594 C-12.86136149 37.52071097 -6.43091426 18.76000432 0 0 Z " fill="#131A29" transform="translate(1420,185)"/>
<path d="M0 0 C0.83490967 0.00684814 1.66981934 0.01369629 2.5300293 0.02075195 C11.82319104 0.26256797 18.99826847 2.66016093 25.625 9.4375 C37.25072811 23.83397903 37.06423381 43.26257847 35.390625 60.90869141 C31.96440952 86.35172251 20.75840336 111.35370922 3.625 130.4375 C2.94050781 131.21609375 2.25601563 131.9946875 1.55078125 132.796875 C-8.86587756 143.96445745 -22.74941295 152.17571342 -38.08203125 153.83984375 C-47.73673982 154.10134723 -55.68452965 153.0115031 -63.25 146.75 C-69.49990628 140.74302294 -72.07962855 134.53265751 -72.578125 125.93359375 C-73.27838908 90.58126804 -63.79694451 46.23242697 -39.375 19.4375 C-32.77300405 12.66993675 -26.02980812 7.31224673 -17.375 3.4375 C-16.78686523 3.17042236 -16.19873047 2.90334473 -15.59277344 2.62817383 C-10.34359722 0.42709583 -5.6617042 -0.07132047 0 0 Z " fill="#0384C7" transform="translate(292.375,327.5625)"/>
<path d="M0 0 C2.33341339 1.67432645 4.25566864 3.51426845 6.2265625 5.59765625 C6.5565625 1.96765625 6.8865625 -1.66234375 7.2265625 -5.40234375 C16.4665625 -5.40234375 25.7065625 -5.40234375 35.2265625 -5.40234375 C35.27185564 5.7683372 35.30850301 16.93895656 35.33018684 28.10970879 C35.34059714 33.29745792 35.35470581 38.48514064 35.37744141 43.67285156 C35.39926828 48.68492404 35.41115181 53.69693287 35.41631699 58.70904922 C35.41999513 60.6154798 35.42717737 62.52190712 35.43802261 64.42831039 C35.5422585 83.52092456 35.5422585 83.52092456 33.2265625 91.59765625 C32.97777344 92.52578125 32.72898437 93.45390625 32.47265625 94.41015625 C29.178835 103.32097703 22.77579812 110.89179907 14.45703125 115.57421875 C-5.37266933 124.67296052 -31.25931499 124.50187168 -51.7734375 117.59765625 C-55.84957803 116.07664398 -59.83628606 114.44864845 -63.7734375 112.59765625 C-63.19804436 107.39480557 -61.47924857 103.35809589 -59.2109375 98.72265625 C-58.88158203 98.03429687 -58.55222656 97.3459375 -58.21289062 96.63671875 C-57.40648389 94.95378295 -56.59089256 93.27525332 -55.7734375 91.59765625 C-51.40568403 92.34884789 -47.70871863 93.80133351 -43.6640625 95.5625 C-32.36086422 99.61026695 -17.38032084 101.10711792 -5.8984375 97.03515625 C-0.41191513 94.29189506 2.89500367 90.2607739 5.6015625 84.84765625 C6.5155151 80.09510272 6.38104762 75.42102487 6.2265625 70.59765625 C5.70449219 71.11714844 5.18242188 71.63664062 4.64453125 72.171875 C-5.43598725 81.72276906 -15.5802336 85.01592372 -29.328125 84.875 C-41.59251974 83.88773013 -51.64397617 77.51882257 -59.98828125 68.79296875 C-63.02971039 65.05274298 -64.97421256 61.04801189 -66.7734375 56.59765625 C-67.093125 55.82808594 -67.4128125 55.05851562 -67.7421875 54.265625 C-72.1159915 42.05542218 -70.44737951 28.5096938 -65.58984375 16.7265625 C-60.38832515 6.1024976 -51.75504298 -1.16293326 -40.7734375 -5.40234375 C-26.40840369 -10.21327488 -12.64640556 -7.7237819 0 0 Z " fill="#131928" transform="translate(1284.7734375,221.40234375)"/>
<path d="M0 0 C1.09634766 0.433125 1.09634766 0.433125 2.21484375 0.875 C14.6238833 6.37920764 23.4372988 16.78369907 29 28.9375 C32.9795797 40.24220438 32.74117269 54.28580563 28.25390625 65.40234375 C20.73998326 80.96857051 9.98050799 90.39699485 -6.26171875 96.23828125 C-21.86886846 100.57978509 -37.96259913 98.29909772 -52.11328125 90.7890625 C-63.61479697 83.66092421 -72.10388228 72.98705907 -76 60 C-78.83125438 46.14980963 -77.47336662 33.47763484 -70.35546875 21.15234375 C-68.68207265 18.64791572 -66.92189484 16.31794692 -65 14 C-64.47792969 13.36578125 -63.95585938 12.7315625 -63.41796875 12.078125 C-47.68654601 -5.22261242 -20.94141037 -8.77893186 0 0 Z " fill="#131A28" transform="translate(907,218)"/>
<path d="M0 0 C12.52624221 8.95705886 20.45746695 19.58586452 24.15234375 34.5390625 C25.49951741 49.48329129 22.42817986 63.06892661 13.18359375 75.1015625 C3.43670296 86.63309526 -9.90005962 92.95222721 -24.84765625 94.5390625 C-41.21510792 95.61512334 -55.35900229 91.73105212 -68.22265625 81.2265625 C-78.22946789 71.70429121 -83.87896361 59.8079998 -84.38867188 46.03027344 C-84.50008092 32.46369066 -81.57925955 22.1392289 -72.84765625 11.5390625 C-72.22375 10.76691406 -71.59984375 9.99476563 -70.95703125 9.19921875 C-53.59528959 -10.18364169 -21.88673509 -13.28691925 0 0 Z " fill="#131A29" transform="translate(795.84765625,221.4609375)"/>
<path d="M0 0 C9.57 0 19.14 0 29 0 C29.33 15.51 29.66 31.02 30 47 C32.97 44.36 35.94 41.72 39 39 C48.38814965 33.76945948 57.67781885 32.40556437 68.3125 34.6875 C77.15813548 37.83594653 83.11553108 41.79727773 88 50 C89.26616371 52.95127865 90.18996374 55.89693801 91 59 C91.33 59.99 91.66 60.98 92 62 C92.08998063 64.31521155 92.11756894 66.63299526 92.11352539 68.94995117 C92.11367142 69.65264633 92.11381744 70.35534149 92.1139679 71.07933044 C92.11327157 73.40057468 92.10549226 75.72173854 92.09765625 78.04296875 C92.09579108 79.6529384 92.09436764 81.26290861 92.09336853 82.87287903 C92.08955118 87.10942147 92.07972755 91.3459296 92.06866455 95.5824585 C92.05843364 99.90587907 92.05386731 104.22930519 92.04882812 108.55273438 C92.03810459 117.03517374 92.0205141 125.51757865 92 134 C82.43 134 72.86 134 63 134 C62.97421875 129.44960938 62.9484375 124.89921875 62.921875 120.2109375 C62.89669689 117.32155888 62.87035692 114.43228394 62.83984375 111.54296875 C62.79156285 106.96077125 62.74749823 102.37881387 62.72900391 97.79638672 C62.7138167 94.10025822 62.67933596 90.40475949 62.63169098 86.7089119 C62.61689819 85.30163687 62.60896019 83.89427192 62.60811615 82.4869194 C62.60573879 80.5098897 62.57633054 78.53294925 62.54589844 76.55615234 C62.53701599 75.43252289 62.52813354 74.30889343 62.51898193 73.1512146 C61.74978979 68.48074465 59.47267315 65.33461004 56 62.1875 C51.47067036 59.49821053 46.12794083 59.26023149 41 60 C35.13281028 62.35499657 32.50152534 65.18465223 30 71 C29.5355687 74.14418401 29.5355687 74.14418401 29.56762695 77.46435547 C29.54783279 78.72520966 29.52803864 79.98606384 29.50764465 81.28512573 C29.50087647 82.64581146 29.49442943 84.00649883 29.48828125 85.3671875 C29.4714205 86.7711035 29.45326838 88.17500452 29.43388367 89.57888794 C29.38652849 93.25800905 29.35662601 96.93706946 29.33044434 100.61639404 C29.30056524 104.37719627 29.25421991 108.1377938 29.20898438 111.8984375 C29.12156999 119.26564062 29.0615031 126.63235271 29 134 C19.43 134 9.86 134 0 134 C0 89.78 0 45.56 0 0 Z " fill="#151C2B" transform="translate(1542,180)"/>
<path d="M0 0 C9.57 0 19.14 0 29 0 C29 23.1 29 46.2 29 70 C30.65 68.35 32.3 66.7 34 65 C34.80179688 64.20980469 35.60359375 63.41960937 36.4296875 62.60546875 C40.22880454 58.84883385 43.99582355 55.09811553 47.5 51.0625 C48.02658203 50.47082031 48.55316406 49.87914062 49.09570312 49.26953125 C51.08155201 46.97644983 51.08155201 46.97644983 52.90966797 44.22119141 C56.28310359 39.74043916 59.24801898 35.96782745 64.99902344 35.1081543 C69.5562072 34.78594631 74.07189734 35.03605146 78.625 35.3125 C80.21727744 35.36778066 81.80974086 35.41795262 83.40234375 35.46289062 C87.27288778 35.58310743 91.13435612 35.77221564 95 36 C91.00494657 40.80139708 86.81875323 45.2972425 82.359375 49.66796875 C81.11184943 50.90286374 79.86445742 52.13789367 78.6171875 53.37304688 C76.67473783 55.29058702 74.73070337 57.20646831 72.78417969 59.11987305 C70.88819008 60.98568839 68.99844702 62.85765361 67.109375 64.73046875 C66.52605408 65.30033005 65.94273315 65.87019135 65.34173584 66.45732117 C61.36821526 70.21469585 61.36821526 70.21469585 59 75 C60.48679086 77.88347318 62.03024227 80.35082937 63.875 83 C64.71272949 84.24608032 64.71272949 84.24608032 65.56738281 85.51733398 C66.89171955 87.48576118 68.22312329 89.44944278 69.55957031 91.40966797 C74.12166491 98.10584563 78.6038062 104.8562016 83.10113525 111.59594727 C84.74122978 114.04938055 86.38738241 116.4986563 88.03466797 118.94726562 C89.05966141 120.47650145 90.08456755 122.00579578 91.109375 123.53515625 C91.58800995 124.24374283 92.0666449 124.95232941 92.55978394 125.68238831 C94.39809471 128.43285169 95.94859097 130.84577292 97 134 C68.89795918 136.98469388 68.89795918 136.98469388 61.46875 132.45751953 C57.49648617 128.25250586 55.41166467 123.1161546 53.26171875 117.81201172 C51.00780754 112.78868561 47.83106096 108.35759954 44.75 103.8125 C43.63741712 102.11277253 42.52773871 100.41113793 41.421875 98.70703125 C40.61476713 97.47123411 39.80755181 96.23550709 39 95 C37.87411986 95.95729916 36.7493285 96.91587895 35.625 97.875 C34.99851562 98.40867187 34.37203125 98.94234375 33.7265625 99.4921875 C30.55616418 102.11343704 30.55616418 102.11343704 29.68115234 106.07275391 C29.64973145 107.36101074 29.61831055 108.64926758 29.5859375 109.9765625 C29.56657135 110.66181 29.5472052 111.3470575 29.5272522 112.05307007 C29.46743169 114.24358644 29.42106244 116.4341553 29.375 118.625 C29.33682237 120.10939802 29.29777076 121.59377384 29.2578125 123.078125 C29.16008069 126.718635 29.08053642 130.35890615 29 134 C19.43 134 9.86 134 0 134 C0 89.78 0 45.56 0 0 Z " fill="#141B2A" transform="translate(953,180)"/>
<path d="M0 0 C6.83024469 3.55172724 13.10325797 9.94906814 15.9375 17.1875 C17.53506529 22.91994017 18.12426256 28.15854143 18.11352539 34.10693359 C18.11367142 34.79055969 18.11381744 35.47418579 18.1139679 36.17852783 C18.11327608 38.41853099 18.10551822 40.65844903 18.09765625 42.8984375 C18.09578947 44.45927892 18.09436679 46.02012092 18.09336853 47.58096313 C18.08956383 51.6744348 18.07975116 55.76787057 18.06866455 59.86132812 C18.05840628 64.0442659 18.05386147 68.22720951 18.04882812 72.41015625 C18.03812694 80.60678908 18.02054685 88.80338593 18 97 C8.43 97 -1.14 97 -11 97 C-11.02578125 92.53339844 -11.0515625 88.06679688 -11.078125 83.46484375 C-11.10982764 79.89061157 -11.14547925 76.31646703 -11.18379211 72.74230194 C-11.2230817 68.97637631 -11.25550405 65.21068519 -11.27099609 61.44458008 C-11.28620357 57.81328125 -11.32071984 54.18262084 -11.36830902 50.55160713 C-11.38308103 49.17027923 -11.39103861 47.78886016 -11.39188385 46.40745354 C-11.32839697 35.97682005 -11.32839697 35.97682005 -16 27 C-18.49552137 25.10057876 -18.49552137 25.10057876 -21 24 C-21.66 23.67 -22.32 23.34 -23 23 C-28.96308973 22.44230096 -33.92876868 22.49843552 -39 26 C-46.10854927 33.10854927 -45.32741 42.17966157 -45.4140625 51.58984375 C-45.43342865 52.88950577 -45.4527948 54.18916779 -45.4727478 55.5282135 C-45.52381345 58.96234179 -45.5635748 62.39650901 -45.60089111 65.83081055 C-45.64109231 69.34368277 -45.69200715 72.85639911 -45.7421875 76.36914062 C-45.83964567 83.24603275 -45.91936646 90.12280778 -46 97 C-55.24 97 -64.48 97 -74 97 C-74 64.66 -74 32.32 -74 -1 C-64.76 -1 -55.52 -1 -46 -1 C-45.67 2.96 -45.34 6.92 -45 11 C-43.88625 9.783125 -42.7725 8.56625 -41.625 7.3125 C-30.4507176 -3.92153792 -14.47994051 -6.19030914 0 0 Z " fill="#131A29" transform="translate(1183,217)"/>
<path d="M0 0 C28.05 0 56.1 0 85 0 C85 20 85 20 82.359375 24.77734375 C80.6328125 26.4296875 80.6328125 26.4296875 78.75 27.9375 C77.45210723 29.1434368 76.15524911 30.350488 74.859375 31.55859375 C73.88000977 32.42073486 73.88000977 32.42073486 72.88085938 33.30029297 C70.05260574 35.8561473 67.54103887 38.66350156 65 41.5 C64.02530923 42.56161735 63.04872229 43.6214967 62.0703125 44.6796875 C61.57563477 45.21561523 61.08095703 45.75154297 60.57128906 46.30371094 C57.14432289 50.00330089 53.69638783 53.68349666 50.24609375 57.36132812 C45.1033157 62.85559101 40.06451024 68.42903873 35 74 C51.83 74.33 68.66 74.66 86 75 C86 82.59 86 90.18 86 98 C56.96 98 27.92 98 -2 98 C-2 78 -2 78 1.5625 73.25 C2.22378906 72.78078125 2.88507813 72.3115625 3.56640625 71.828125 C6.54655981 69.58942217 8.73131648 66.97496869 11.14624023 64.14941406 C14.07659593 60.75169886 17.16814586 57.50983233 20.25 54.25 C29.95467254 43.94080948 39.47542877 33.47702835 49 23 C24.745 22.505 24.745 22.505 0 22 C0 14.74 0 7.48 0 0 Z " fill="#131A29" transform="translate(1702,216)"/>
<path d="M0 0 C28.05 0 56.1 0 85 0 C85 20 85 20 80.9375 25.25 C80.18339844 25.81203125 79.42929688 26.3740625 78.65234375 26.953125 C75.6132745 29.29844501 73.34796027 31.93077233 70.86303711 34.84130859 C67.79411556 38.39725202 64.54493225 41.7807272 61.3125 45.1875 C59.90449771 46.67796025 58.49695014 48.16885017 57.08984375 49.66015625 C56.40003418 50.39121582 55.71022461 51.12227539 54.99951172 51.87548828 C52.11024617 54.94537703 49.23753132 58.0301847 46.375 61.125 C45.91520752 61.6202417 45.45541504 62.1154834 44.98168945 62.62573242 C41.55143604 66.34241608 38.29796543 70.15237366 35 74 C59.75 74.495 59.75 74.495 85 75 C85 82.59 85 90.18 85 98 C56.29 98 27.58 98 -2 98 C-2 78 -2 78 2.625 71.6875 C4.22509766 70.09057617 4.22509766 70.09057617 5.6640625 68.91796875 C9.41117495 65.71141238 12.67596902 62.13588718 16 58.5 C17.1939577 57.220089 18.38925658 55.94142773 19.5859375 54.6640625 C23.50450274 50.46544346 27.38487877 46.23287755 31.2578125 41.9921875 C33.24258219 39.82130021 35.23936721 37.66205689 37.2421875 35.5078125 C37.78536621 34.92273926 38.32854492 34.33766602 38.88818359 33.73486328 C39.93382888 32.60939291 40.98094317 31.48528489 42.02978516 30.36279297 C44.53919353 27.65923967 46.77932905 24.9608946 49 22 C32.83 22 16.66 22 0 22 C0 14.74 0 7.48 0 0 Z " fill="#131928" transform="translate(1802,216)"/>
<path d="M0 0 C9.57 0 19.14 0 29 0 C29 32.34 29 64.68 29 98 C19.43 98 9.86 98 0 98 C0 65.66 0 33.32 0 0 Z " fill="#161D2C" transform="translate(1654,216)"/>
<path d="M0 0 C9.57 0 19.14 0 29 0 C29 32.34 29 64.68 29 98 C19.43 98 9.86 98 0 98 C0 65.66 0 33.32 0 0 Z " fill="#161D2C" transform="translate(1059,216)"/>
<path d="M0 0 C7.47300808 3.92742031 12.31011517 9.18034551 15 17.25 C15.64930041 27.77615855 15.5618846 36.01339704 8.875 44.5 C3.27123634 50.43064987 -2.34118793 52.44145867 -10.4375 52.8125 C-18.48670508 52.53040169 -24.84105728 49.92035269 -30.375 44 C-35.67758663 36.98009838 -37.81894463 30.45845726 -37.5078125 21.6015625 C-36.35746498 14.00926886 -33.02344612 7.39444165 -26.9375 2.625 C-18.91798598 -2.78694197 -8.98578386 -3.82951191 0 0 Z " fill="#FCFCFC" transform="translate(895,239.75)"/>
<path d="M0 0 C5.86005432 5.18559524 9.36300589 10.77664827 10.3125 18.5625 C10.68708106 26.80328328 8.46524424 33.79995427 4.3125 40.875 C-2.28543507 46.93796736 -9.66891096 49.42096238 -18.53515625 49.2734375 C-25.66701407 48.48226468 -31.75541074 45.36333504 -36.52734375 40.02734375 C-42.2499227 32.14931066 -43.23654762 23.53126532 -42 14 C-39.81291388 6.59212765 -35.40353471 1.24017839 -29 -3 C-19.33604386 -7.27444214 -8.51217821 -6.08223114 0 0 Z " fill="#FDFDFD" transform="translate(782,243)"/>
<path d="M0 0 C5.91264563 3.06461303 10.87641128 7.94173385 13 14.3125 C13.64152263 22.00025478 13.88160306 29.00529604 9 35.3125 C4.27498337 40.55188553 -1.16679922 43.69219616 -8.19140625 44.59375 C-15.91567396 44.91615422 -22.36630538 42.95074334 -28.375 38.0625 C-33.92252204 32.73599477 -35.1511669 28.39775145 -35.4375 20.875 C-35.27446743 15.18842412 -34.65791495 10.7855492 -31 6.3125 C-22.34270973 -1.76643268 -11.3049963 -4.68512431 0 0 Z " fill="#FCFCFC" transform="translate(1279,238.6875)"/>
<path d="M0 0 C32.31180401 0 32.31180401 0 38.15625 4.75390625 C38.5996875 5.35074219 39.043125 5.94757813 39.5 6.5625 C39.9640625 7.16191406 40.428125 7.76132812 40.90625 8.37890625 C44.24624812 13.32926061 43.48462624 19.24067372 43 25 C40.59577608 30.60985581 36.27694978 33.28025792 31 36 C28.23434618 36.92188461 26.61716298 37.11785222 23.76953125 37.09765625 C23.04612549 37.09515869 22.32271973 37.09266113 21.57739258 37.09008789 C20.20877075 37.07643188 20.20877075 37.07643188 18.8125 37.0625 C15.904375 37.041875 12.99625 37.02125 10 37 C10 42.94 10 48.88 10 55 C6.7 55 3.4 55 0 55 C0 36.85 0 18.7 0 0 Z " fill="#0987C8" transform="translate(1050,375)"/>
<path d="M0 0 C5.25896591 3.13321532 9.1785616 7.38350844 11.7265625 12.96484375 C13.21797581 19.74399517 13.03548291 26.05414307 9.4140625 32.08984375 C4.14198511 38.02686784 -1.48293899 41.69277938 -9.4609375 42.46484375 C-16.05674903 42.14589735 -21.59536267 40.39811912 -26.4609375 35.83984375 C-31.41491715 30.33414479 -33.19694989 24.91670474 -32.9296875 17.578125 C-31.99511424 10.81308903 -28.54899748 6.53251528 -23.3671875 2.31640625 C-16.77848938 -2.22054816 -7.53995764 -2.65379174 0 0 Z " fill="#0987C8" transform="translate(1253.5859375,388.91015625)"/>
<path d="M0 0 C6.1394313 2.77226258 10.99975983 8.10922135 13.515625 14.34765625 C14.44823947 21.21955237 14.19420904 26.99992514 9.99609375 32.66796875 C4.65405497 38.72885707 -0.96286531 41.85440065 -8.921875 42.72265625 C-16.47095486 41.92801626 -21.89026839 39.95311348 -27.04296875 34.2265625 C-30.98086617 29.0934225 -32.05862011 24.16494895 -31.828125 17.8359375 C-30.89355174 11.07090153 -27.44743498 6.79032778 -22.265625 2.57421875 C-15.71770638 -1.93465504 -7.62347894 -2.00176255 0 0 Z " fill="#0987C8" transform="translate(1641.484375,388.65234375)"/>
<path d="M0 0 C5.55251407 3.08565917 10.06227894 6.76020855 12.03125 12.94140625 C13.07999387 19.8273447 13.1873551 26.03060523 9.40625 32.06640625 C4.94190473 37.70172732 0.06814669 40.48549659 -6.96875 41.94140625 C-14.07684194 42.75708893 -19.01099254 40.86880919 -24.96875 36.94140625 C-28.98896492 33.27729429 -31.70532462 29.19300003 -32.33984375 23.76953125 C-32.56008832 11.90223575 -32.56008832 11.90223575 -28.53515625 6.55859375 C-20.88921913 -1.33521665 -10.50112208 -3.74447906 0 0 Z " fill="#0887C8" transform="translate(779.96875,389.05859375)"/>
<path d="M0 0 C3.3 0 6.6 0 10 0 C10.33 1.65 10.66 3.3 11 5 C11.763125 4.175 12.52625 3.35 13.3125 2.5 C17.09169769 -0.65082753 20.59874461 -0.64247139 25.37890625 -0.44140625 C28.93913005 0.15815454 31.18604394 1.80374161 34 4 C35.32 4 36.64 4 38 4 C38.66 3.34 39.32 2.68 40 2 C44.72094511 -1.14729674 49.49226989 -0.73884184 55 0 C59.59309065 2.17567452 61.81580436 4.46335344 64 9 C64.25139766 11.65508364 64.35182051 14.0615348 64.29296875 16.70703125 C64.28872391 17.43242599 64.28447906 18.15782074 64.28010559 18.90519714 C64.26339543 21.20801891 64.2257596 23.50994553 64.1875 25.8125 C64.17244316 27.3795446 64.1587565 28.946603 64.14648438 30.51367188 C64.11351731 34.34278957 64.06178992 38.17124334 64 42 C61.03 42 58.06 42 55 42 C54.99589111 41.17798096 54.99178223 40.35596191 54.98754883 39.5090332 C54.95460757 35.77612958 54.88395896 32.04485666 54.8125 28.3125 C54.80669922 27.01892578 54.80089844 25.72535156 54.79492188 24.39257812 C54.76591797 23.14541016 54.73691406 21.89824219 54.70703125 20.61328125 C54.6913208 19.46641846 54.67561035 18.31955566 54.65942383 17.13793945 C53.8065897 13.07963622 52.19162984 11.56668708 49 9 C46 8.16666667 46 8.16666667 43 9 C39.80837016 11.56668708 38.1934103 13.07963622 37.34057617 17.13793945 C37.3170105 18.85823364 37.3170105 18.85823364 37.29296875 20.61328125 C37.26396484 21.86044922 37.23496094 23.10761719 37.20507812 24.39257812 C37.19927734 25.68615234 37.19347656 26.97972656 37.1875 28.3125 C37.16236328 29.62541016 37.13722656 30.93832031 37.11132812 32.29101562 C37.05248032 35.52764489 37.01618063 38.76292218 37 42 C33.7 42 30.4 42 27 42 C26.9906543 41.14245117 26.98130859 40.28490234 26.97167969 39.40136719 C26.92758709 36.21027321 26.86593944 33.02013244 26.79248047 29.82958984 C26.76430901 28.45048349 26.74307528 27.07121682 26.72900391 25.69189453 C26.70752455 23.70577051 26.65876868 21.72000091 26.609375 19.734375 C26.58842773 18.54038086 26.56748047 17.34638672 26.54589844 16.11621094 C25.89956891 12.42669835 24.96109499 11.22789714 22 9 C19.04308291 8.24984805 19.04308291 8.24984805 16 9 C12.80262657 11.56279374 11.19370856 13.0782169 10.34057617 17.13793945 C10.32486572 18.28480225 10.30915527 19.43166504 10.29296875 20.61328125 C10.26396484 21.86044922 10.23496094 23.10761719 10.20507812 24.39257812 C10.19927734 25.68615234 10.19347656 26.97972656 10.1875 28.3125 C10.16236328 29.62541016 10.13722656 30.93832031 10.11132812 32.29101562 C10.05248032 35.52764489 10.01618063 38.76292218 10 42 C6.7 42 3.4 42 0 42 C0 28.14 0 14.28 0 0 Z " fill="#0A88C8" transform="translate(802,388)"/>
<path d="M0 0 C1.37478516 0.01740234 1.37478516 0.01740234 2.77734375 0.03515625 C3.69644531 0.04417969 4.61554687 0.05320312 5.5625 0.0625 C6.27277344 0.07410156 6.98304688 0.08570313 7.71484375 0.09765625 C10.17013145 5.53716945 12.62366309 10.97747027 15.07568359 16.41845703 C15.90725161 18.26306697 16.73927026 20.10747384 17.57177734 21.95166016 C31.71484375 53.28425372 31.71484375 53.28425372 31.71484375 55.09765625 C28.08484375 55.09765625 24.45484375 55.09765625 20.71484375 55.09765625 C18.23984375 49.15765625 18.23984375 49.15765625 15.71484375 43.09765625 C6.80484375 43.09765625 -2.10515625 43.09765625 -11.28515625 43.09765625 C-12.93515625 47.05765625 -14.58515625 51.01765625 -16.28515625 55.09765625 C-19.58515625 55.09765625 -22.88515625 55.09765625 -26.28515625 55.09765625 C-24.14442612 48.32054852 -21.55724808 41.89284722 -18.65234375 35.41015625 C-18.21503937 34.42644043 -17.77773499 33.44272461 -17.32717896 32.42919922 C-16.40972672 30.36776485 -15.49025356 28.30722882 -14.56884766 26.24755859 C-13.15284923 23.0813174 -11.74392626 19.91199743 -10.3359375 16.7421875 C-9.44181785 14.73549363 -8.54730096 12.72897671 -7.65234375 10.72265625 C-7.22944061 9.77173096 -6.80653748 8.82080566 -6.37081909 7.84106445 C-5.78483444 6.53335083 -5.78483444 6.53335083 -5.18701172 5.19921875 C-4.67096878 4.04413818 -4.67096878 4.04413818 -4.14450073 2.86572266 C-2.8100218 0.1200864 -2.8100218 0.1200864 0 0 Z " fill="#0A88C8" transform="translate(629.28515625,374.90234375)"/>
<path d="M0 0 C5.67470101 -0.06917243 11.34791714 -0.12881478 17.02270508 -0.16479492 C18.94983906 -0.17980652 20.87693932 -0.20022216 22.80395508 -0.22631836 C25.58683639 -0.26303943 28.36926288 -0.27980292 31.15234375 -0.29296875 C32.00271713 -0.30845261 32.85309052 -0.32393646 33.72923279 -0.33988953 C39.52851846 -0.34149173 44.72192291 0.48325442 50 3 C53.54546255 6.54546255 54.84062325 9.31060644 55.3125 14.3125 C54.93004251 18.82549836 54.00311944 20.62149063 51 24 C45.15563661 28.05795579 39.76128469 28.55015072 32.8125 28.390625 C31.86938965 28.38496521 30.9262793 28.37930542 29.95458984 28.37347412 C26.96919022 28.35124585 23.98503126 28.3010756 21 28.25 C18.96486119 28.22991746 16.92970341 28.21166978 14.89453125 28.1953125 C9.92883558 28.15484228 4.96579141 28.07652761 0 28 C0 18.76 0 9.52 0 0 Z " fill="#FBFCFC" transform="translate(618,261)"/>
<path d="M0 0 C4.49935761 -0.09261113 8.99531606 -0.17199603 13.49487305 -0.21972656 C15.02037859 -0.23965311 16.54580968 -0.26680485 18.07104492 -0.30175781 C36.15678936 -0.70537797 36.15678936 -0.70537797 44 4 C47.54806631 7.98978948 47.57898242 11.09666087 47.3984375 16.3046875 C46.93605911 19.43254129 46.0178314 21.64109496 43.70507812 23.8659668 C35.41879435 29.37710485 24.87391225 28.35520231 15.375 28.1875 C13.87891979 28.1724192 12.3828248 28.15873683 10.88671875 28.14648438 C7.25713986 28.11633837 3.62965624 28.05757974 0 28 C0 18.76 0 9.52 0 0 Z " fill="#F5F6F6" transform="translate(618,210)"/>
<path d="M0 0 C4.48021006 2.69580091 6.74215561 6.47646682 8.375 11.375 C8.45858958 13.58589945 8.48231764 15.79926078 8.47265625 18.01171875 C8.46943359 19.31044922 8.46621094 20.60917969 8.46289062 21.94726562 C8.45453531 23.31901108 8.44607037 24.69075587 8.4375 26.0625 C8.43248335 27.44596195 8.42792073 28.82942563 8.42382812 30.21289062 C8.41202529 33.60030395 8.39556019 36.98763033 8.375 40.375 C5.075 40.375 1.775 40.375 -1.625 40.375 C-1.955 39.055 -2.285 37.735 -2.625 36.375 C-3.346875 37.035 -4.06875 37.695 -4.8125 38.375 C-9.80270994 41.7097465 -15.89932973 41.10253116 -21.625 40.375 C-24.89666487 39.18530368 -26.92064381 37.54158993 -28.75 34.51171875 C-30.62635581 29.92972487 -30.30307671 25.01665939 -28.4375 20.5 C-25.90340759 17.52899511 -23.55568414 15.61424838 -19.56420898 15.11962891 C-17.18168715 15.04408986 -14.82036002 15.06414484 -12.4375 15.125 C-11.20870117 15.13273437 -11.20870117 15.13273437 -9.95507812 15.140625 C-3.93520182 15.21989909 -3.93520182 15.21989909 -1.625 16.375 C-2.46068621 11.44103242 -2.46068621 11.44103242 -5.6875 7.9375 C-12.06349308 6.71656515 -18.26961137 7.29323172 -24.625 8.375 C-25.285 6.065 -25.945 3.755 -26.625 1.375 C-18.51597305 -2.51733293 -8.42672466 -3.7715116 0 0 Z " fill="#0B88C9" transform="translate(1352.625,389.625)"/>
<path d="M0 0 C5.91381348 2.69752896 9.95661417 7.31700785 12.3125 13.375 C13 17 13 17 13 25 C2.77 25 -7.46 25 -18 25 C-14.85105133 31.47481418 -14.85105133 31.47481418 -12.25 33.4375 C-4.99994494 35.25001377 -0.22092347 33.70608207 6 30 C7.7074998 31.28062485 9.37373596 32.61767557 11 34 C11 34.66 11 35.32 11 36 C5.40086319 41.16843398 -0.96602654 43.56267027 -8.55859375 43.3828125 C-14.31261845 42.48058143 -19.30278549 39.65369619 -23.4375 35.625 C-27.57484724 28.67425663 -29.17980423 23.14408553 -28 15 C-25.99836598 8.82104281 -22.28302931 4.37738259 -16.734375 1.03515625 C-11.25715193 -1.03836391 -5.73032864 -0.81660703 0 0 Z " fill="#0E89C9" transform="translate(1487,388)"/>
<path d="M0 0 C6.0789281 2.61189418 9.25207142 7.17439142 12 13 C13 16 13 16 13 25 C2.77 25 -7.46 25 -18 25 C-15.22236589 31.18679226 -15.22236589 31.18679226 -10 34 C-4.72722269 34.41847439 -0.96541546 33.98616619 4 32 C4 31.34 4 30.68 4 30 C6.62187494 31.04874998 7.79371361 31.64931313 9.25 34.125 C9.4975 34.74375 9.745 35.3625 10 36 C4.86455376 40.75968188 0.76939036 42.57327656 -6.3125 43.375 C-13.01648957 42.69323835 -18.93003737 40.67996426 -23.5 35.5625 C-28.48385511 29.31819316 -28.80204523 22.71968533 -28 15 C-26.07238146 8.31904936 -22.0356112 4.51779283 -16.234375 0.8984375 C-11.12791214 -1.1548605 -5.36742564 -0.67843299 0 0 Z " fill="#0D89C9" transform="translate(982,388)"/>
<path d="M0 0 C3.63176747 3.15146411 5.53840936 6.30398963 6.13769531 11.07958984 C6.11674805 12.38879395 6.09580078 13.69799805 6.07421875 15.046875 C6.06855896 15.74865875 6.06289917 16.4504425 6.05706787 17.17349243 C6.03483858 19.39502837 5.98467431 21.61489673 5.93359375 23.8359375 C5.91351106 25.35023697 5.89526339 26.86456196 5.87890625 28.37890625 C5.83502008 32.07345018 5.76608952 35.76703083 5.68359375 39.4609375 C2.71359375 39.4609375 -0.25640625 39.4609375 -3.31640625 39.4609375 C-3.64640625 38.1409375 -3.97640625 36.8209375 -4.31640625 35.4609375 C-5.03828125 36.1209375 -5.76015625 36.7809375 -6.50390625 37.4609375 C-11.49691469 40.79755412 -17.58769603 40.1824926 -23.31640625 39.4609375 C-27.80727418 37.37036105 -30.39484302 35.05133855 -32.31640625 30.4609375 C-32.85864469 26.20049263 -32.6170616 24.03997744 -30.62890625 20.2109375 C-27.35763049 16.32077173 -24.24085405 14.48041653 -19.31640625 13.4609375 C-13.58580583 13.0054554 -8.74379643 13.61331531 -3.31640625 15.4609375 C-3.97640625 12.8209375 -4.63640625 10.1809375 -5.31640625 7.4609375 C-12.10357352 5.65102623 -19.49493523 6.02483834 -26.31640625 7.4609375 C-28.4250601 3.98786058 -28.4250601 3.98786058 -27.875 1.3203125 C-27.69066406 0.70671875 -27.50632812 0.093125 -27.31640625 -0.5390625 C-18.39065071 -3.33929953 -8.53504493 -4.44810805 0 0 Z " fill="#0A88C8" transform="translate(907.31640625,390.5390625)"/>
<path d="M0 0 C4.87237169 2.92546166 7.09098609 6.49447218 9.625 11.5625 C9.625 15.5225 9.625 19.4825 9.625 23.5625 C-0.275 23.5625 -10.175 23.5625 -20.375 23.5625 C-17.58591615 29.72906173 -17.58591615 29.72906173 -12.375 32.5625 C-7.02328041 33.14632396 -4.04752166 32.05451155 0.625 29.5625 C4.625 29.5625 4.625 29.5625 6.375 31.0625 C6.7875 31.5575 7.2 32.0525 7.625 32.5625 C6.33609603 36.57242347 3.89631929 37.88619049 0.3515625 39.74609375 C-5.97727673 42.73868967 -12.69477035 42.05594957 -19.16015625 39.74609375 C-24.22997891 37.03682344 -28.27955388 31.89007291 -30.375 26.5625 C-31.12003959 19.78941282 -31.20749 12.43730376 -27.375 6.5625 C-19.98770957 -1.34805684 -10.48550646 -4.46191764 0 0 Z " fill="#0D89C9" transform="translate(1130.375,389.4375)"/>
<path d="M0 0 C4.89872999 2.85759249 7.79346527 7.1303958 9.5625 12.4375 C9.5625 16.0675 9.5625 19.6975 9.5625 23.4375 C-0.3375 23.4375 -10.2375 23.4375 -20.4375 23.4375 C-17.94816199 29.27170965 -17.94816199 29.27170965 -13.4375 32.4375 C-8.76267428 33.16013527 -4.88404669 33.11337202 -0.875 30.4375 C-0.070625 29.7775 0.73375 29.1175 1.5625 28.4375 C4.18437494 29.48624998 5.35621361 30.08681313 6.8125 32.5625 C7.06 33.18125 7.3075 33.8 7.5625 34.4375 C2.59293242 38.94117062 -2.35226691 41.16686552 -9 41.75 C-17.12127351 41.01170241 -21.99569477 38.40632691 -27.4375 32.4375 C-31.34938915 26.3251732 -31.36737615 19.53438493 -30.4375 12.4375 C-28.29593636 6.71751165 -24.31621784 2.93744976 -19.4375 -0.5625 C-13.31686017 -2.60271328 -5.94701962 -2.65573014 0 0 Z " fill="#0C89C9" transform="translate(1786.4375,389.5625)"/>
<path d="M0 0 C2.82101564 1.82879635 5.43419885 3.82998732 8 6 C6.64062915 8.8605891 5.35479531 10.85927699 3 13 C0.27844151 11.95940411 -2.13962472 10.91356565 -4.625 9.375 C-10.09272438 7.14740859 -15.81697532 6.7320082 -21.3828125 8.94921875 C-26.28324436 11.81533849 -29.08423032 14.83643201 -30.6875 20.375 C-31.54775499 27.60114194 -30.74309676 32.74939182 -27 39 C-24.64167228 41.47208796 -24.64167228 41.47208796 -22 43 C-21.1028125 43.61875 -21.1028125 43.61875 -20.1875 44.25 C-13.74417532 46.45913989 -7.91082667 44.79787531 -2 42 C-0.30596166 41.04710343 1.37501495 40.06639644 3 39 C5.04119788 40.61594832 7.04072937 42.2856382 9 44 C9 44.66 9 45.32 9 46 C1.43847511 52.28376721 -6.35135127 55.67065017 -16.19921875 55.34375 C-24.58821016 54.31413878 -31.45583889 50.32520922 -37 44 C-41.84391249 36.6147885 -42.8375696 28.6987586 -42 20 C-40.03688467 12.63240453 -35.34309908 5.76233875 -28.875 1.6484375 C-19.75878793 -3.01021499 -9.65384367 -3.53974268 0 0 Z " fill="#0987C8" transform="translate(1595,376)"/>
<path d="M0 0 C3.3 0 6.6 0 10 0 C10.01401855 1.28632324 10.01401855 1.28632324 10.02832031 2.59863281 C10.07241291 5.78972679 10.13406056 8.97986756 10.20751953 12.17041016 C10.23569099 13.54951651 10.25692472 14.92878318 10.27099609 16.30810547 C10.29247545 18.29422949 10.34123132 20.27999909 10.390625 22.265625 C10.41157227 23.45961914 10.43251953 24.65361328 10.45410156 25.88378906 C11.10200976 29.58231331 12.01307025 30.78492828 15 33 C18.45728358 33.75011367 18.45728358 33.75011367 22 33 C25.22356626 30.44635727 26.8038963 28.9331806 27.65942383 24.86206055 C27.67513428 23.71519775 27.69084473 22.56833496 27.70703125 21.38671875 C27.73603516 20.13955078 27.76503906 18.89238281 27.79492188 17.60742188 C27.80072266 16.31384766 27.80652344 15.02027344 27.8125 13.6875 C27.83763672 12.37458984 27.86277344 11.06167969 27.88867188 9.70898438 C27.94751968 6.47235511 27.98381937 3.23707782 28 0 C31.3 0 34.6 0 38 0 C38 13.86 38 27.72 38 42 C34.7 42 31.4 42 28 42 C28 40.35 28 38.7 28 37 C27.0925 37.825 26.185 38.65 25.25 39.5 C20.22343388 43.09332934 14.93884226 42.88257795 9 42 C3.88554357 39.66709005 2.1011806 37.11568939 0 32 C-0.34057617 28.38134766 -0.34057617 28.38134766 -0.29296875 24.4140625 C-0.28872391 23.71227875 -0.28447906 23.010495 -0.28010559 22.28744507 C-0.26343599 20.0662244 -0.22580872 17.84594212 -0.1875 15.625 C-0.17243788 14.11069027 -0.15875216 12.59636619 -0.14648438 11.08203125 C-0.11357183 7.38772068 -0.06187259 3.69395207 0 0 Z " fill="#0A88C8" transform="translate(668,388)"/>
<path d="M0 0 C3.3 0 6.6 0 10 0 C10 1.65 10 3.3 10 5 C10.9075 4.175 11.815 3.35 12.75 2.5 C17.0480907 -0.54884889 20.94271451 -0.77773182 26.1171875 -0.55078125 C30.56408668 0.29882957 33.44194617 2.27780191 36 6 C37.81087396 10.52470426 38.23682714 14.29122512 38.1953125 19.1484375 C38.1924826 19.80582916 38.18965271 20.46322083 38.18673706 21.14053345 C38.17563447 23.21888233 38.15054986 25.29678366 38.125 27.375 C38.11495731 28.79296248 38.10583373 30.21093179 38.09765625 31.62890625 C38.07572805 35.08608037 38.04126818 38.54299642 38 42 C34.7 42 31.4 42 28 42 C27.97494385 41.13721436 27.9498877 40.27442871 27.92407227 39.38549805 C27.82888615 36.18176231 27.72965556 32.97818463 27.62768555 29.7746582 C27.58439782 28.38864017 27.54271836 27.00257094 27.50268555 25.61645508 C27.44483416 23.62308202 27.38070224 21.62989435 27.31640625 19.63671875 C27.27974854 18.43748779 27.24309082 17.23825684 27.20532227 16.00268555 C27.12266975 12.95005651 27.12266975 12.95005651 26 10 C24.4438453 9.69481238 22.87929892 9.43224085 21.3125 9.1875 C20.44238281 9.03667969 19.57226562 8.88585937 18.67578125 8.73046875 C14.70845419 9.13009731 13.48285411 10.97446784 11 14 C10.22876561 17.17047234 10.22876561 17.17047234 10.29296875 20.61328125 C10.26396484 21.86044922 10.23496094 23.10761719 10.20507812 24.39257812 C10.19927734 25.68615234 10.19347656 26.97972656 10.1875 28.3125 C10.16236328 29.62541016 10.13722656 30.93832031 10.11132812 32.29101562 C10.05248032 35.52764489 10.01618063 38.76292218 10 42 C6.7 42 3.4 42 0 42 C0 28.14 0 14.28 0 0 Z " fill="#0B88C9" transform="translate(1665,388)"/>
<path d="M0 0 C3.32765156 2.92429986 5.65331343 5.58494028 7.0625 9.8125 C7.14647157 12.16930213 7.16978187 14.52844081 7.16015625 16.88671875 C7.1587413 17.5705513 7.15732635 18.25438385 7.15586853 18.9589386 C7.15027876 21.13933722 7.13772822 23.31963251 7.125 25.5 C7.11998367 26.97981622 7.115421 28.45963406 7.11132812 29.93945312 C7.10031271 33.56383557 7.08305512 37.1881577 7.0625 40.8125 C3.7625 40.8125 0.4625 40.8125 -2.9375 40.8125 C-2.94160889 39.99048096 -2.94571777 39.16846191 -2.94995117 38.3215332 C-2.98289243 34.58862958 -3.05354104 30.85735666 -3.125 27.125 C-3.13080078 25.83142578 -3.13660156 24.53785156 -3.14257812 23.20507812 C-3.17158203 21.95791016 -3.20058594 20.71074219 -3.23046875 19.42578125 C-3.2461792 18.27891846 -3.26188965 17.13205566 -3.27807617 15.95043945 C-4.13122503 11.89063852 -5.73513034 10.3698475 -8.9375 7.8125 C-12.81190468 7.25901362 -15.71794012 7.51281437 -18.9375 9.8125 C-21.06185054 13.14214902 -21.23679392 15.98849332 -21.3515625 19.890625 C-21.40957031 21.63085938 -21.40957031 21.63085938 -21.46875 23.40625 C-21.4996875 24.6128125 -21.530625 25.819375 -21.5625 27.0625 C-21.62050781 28.89554687 -21.62050781 28.89554687 -21.6796875 30.765625 C-21.77392108 33.7810994 -21.85953455 36.79656828 -21.9375 39.8125 C-24.9075 39.8125 -27.8775 39.8125 -30.9375 39.8125 C-30.9375 26.6125 -30.9375 13.4125 -30.9375 -0.1875 C-27.9675 -0.1875 -24.9975 -0.1875 -21.9375 -0.1875 C-21.9375 1.4625 -21.9375 3.1125 -21.9375 4.8125 C-21.2775 4.8125 -20.6175 4.8125 -19.9375 4.8125 C-19.6075 3.8225 -19.2775 2.8325 -18.9375 1.8125 C-13.90056369 -2.72074268 -6.00723068 -2.42845496 0 0 Z " fill="#0786C8" transform="translate(1306.9375,389.1875)"/>
<path d="M0 0 C11.88 0 23.76 0 36 0 C36 7 36 7 34.91772461 8.95288086 C34.41764893 9.45182861 33.91757324 9.95077637 33.40234375 10.46484375 C32.8511084 11.03348145 32.29987305 11.60211914 31.73193359 12.18798828 C31.13977051 12.76532715 30.54760742 13.34266602 29.9375 13.9375 C28.74017879 15.16206992 27.54355886 16.38732591 26.34765625 17.61328125 C25.76902832 18.1954541 25.19040039 18.77762695 24.59423828 19.37744141 C22.61119249 21.39571435 20.73032323 23.48917434 18.875 25.625 C18.37742187 26.19476563 17.87984375 26.76453125 17.3671875 27.3515625 C15.84785883 29.18343878 14.42796601 31.09604533 13 33 C20.59 33.33 28.18 33.66 36 34 C36 36.64 36 39.28 36 42 C23.79 42 11.58 42 -1 42 C-1 35 -1 35 0 33 C0.66 33 1.32 33 2 33 C2.26047119 32.41734375 2.52094238 31.8346875 2.78930664 31.234375 C4.07950573 28.85326952 5.49868122 27.20075509 7.37109375 25.25 C8.35625977 24.21359375 8.35625977 24.21359375 9.36132812 23.15625 C10.04646484 22.4446875 10.73160156 21.733125 11.4375 21 C12.79218714 19.58507606 14.14511318 18.16846344 15.49609375 16.75 C16.09607178 16.12609375 16.6960498 15.5021875 17.31420898 14.859375 C18.9939888 13.00663017 20.49948125 11.00069166 22 9 C14.74 8.67 7.48 8.34 0 8 C0 5.36 0 2.72 0 0 Z " fill="#0D89C9" transform="translate(1417,388)"/>
<path d="M0 0 C10.23 0 20.46 0 31 0 C31 8.25 31 16.5 31 25 C20.77 25 10.54 25 0 25 C0 16.75 0 8.5 0 0 Z " fill="#1B2230" transform="translate(1653,180)"/>
<path d="M0 0 C2.13106799 0.95239489 4.18381734 1.95269908 6.21484375 3.1015625 C5.40234375 6.0390625 5.40234375 6.0390625 4.21484375 9.1015625 C0.5327101 10.32894038 -0.56419881 9.37556076 -3.94140625 7.80859375 C-6.61751633 6.78237357 -8.95997269 6.83875473 -11.78515625 7.1015625 C-12.77515625 7.5965625 -12.77515625 7.5965625 -13.78515625 8.1015625 C-13.85750283 10.52589295 -13.85750283 10.52589295 -12.78515625 13.1015625 C-10.31233137 14.35606878 -8.1436453 15.2566282 -5.53515625 16.1015625 C-0.15919871 17.88319005 3.56792659 19.49602712 7.21484375 24.1015625 C8.4843393 28.63547519 7.56468895 32.38891486 5.52734375 36.5390625 C2.33935702 40.07169645 -0.28674804 40.92775447 -4.984375 41.47265625 C-13.19320772 41.62892742 -18.85053897 40.57550913 -25.78515625 36.1015625 C-24.53538869 32.44839579 -24.11416872 31.32090414 -20.78515625 29.1015625 C-20.30046875 29.3903125 -19.81578125 29.6790625 -19.31640625 29.9765625 C-14.16434341 32.83001269 -10.66262325 33.60824069 -4.78515625 33.1015625 C-3.79515625 32.6065625 -3.79515625 32.6065625 -2.78515625 32.1015625 C-2.78515625 30.4515625 -2.78515625 28.8015625 -2.78515625 27.1015625 C-3.88214844 26.73804688 -4.97914062 26.37453125 -6.109375 26 C-7.56414692 25.49317623 -9.01855526 24.98530801 -10.47265625 24.4765625 C-11.19388672 24.24066406 -11.91511719 24.00476563 -12.65820312 23.76171875 C-17.96556957 21.87142385 -20.64920263 19.82065712 -23.78515625 15.1015625 C-24.66389282 12.28960548 -24.50065824 9.95221329 -23.78515625 7.1015625 C-18.77594178 -1.85191534 -9.18952421 -2.96436265 0 0 Z " fill="#0987C8" transform="translate(1205.78515625,388.8984375)"/>
<path d="M0 0 C9.9 0 19.8 0 30 0 C30 8.25 30 16.5 30 25 C20.1 25 10.2 25 0 25 C0 16.75 0 8.5 0 0 Z " fill="#161D2B" transform="translate(1059,180)"/>
<path d="M0 0 C3.3 0 6.6 0 10 0 C12.91798549 6.46031472 15.63919522 12.97263534 18.25 19.5625 C18.61351562 20.47580078 18.97703125 21.38910156 19.3515625 22.33007812 C20.23597809 24.55275414 21.11876272 26.77606241 22 29 C22.2266333 28.3702124 22.4532666 27.7404248 22.68676758 27.09155273 C23.72651215 24.20608266 24.76948019 21.3217877 25.8125 18.4375 C26.16892578 17.44685547 26.52535156 16.45621094 26.89257812 15.43554688 C28.78274674 10.21590692 30.74455863 5.07296433 33 0 C36.3 0 39.6 0 43 0 C40.51541605 7.93636887 37.41570874 15.60300226 34.27441406 23.29589844 C33.36636825 25.52115295 32.46417592 27.74872037 31.5625 29.9765625 C30.98732305 31.39076491 30.41181456 32.80483254 29.8359375 34.21875 C29.56615082 34.88531616 29.29636414 35.55188232 29.0184021 36.23864746 C27.11511631 40.88488369 27.11511631 40.88488369 26 42 C24.48071962 42.07179964 22.95832518 42.08392007 21.4375 42.0625 C20.61121094 42.05347656 19.78492188 42.04445313 18.93359375 42.03515625 C18.29550781 42.02355469 17.65742187 42.01195312 17 42 C14.57436372 36.34195291 12.15340575 30.68193655 9.73681641 25.02001953 C8.9135656 23.09303413 8.08902503 21.16659922 7.26318359 19.24072266 C6.0783308 16.4770144 4.89808692 13.71137818 3.71875 10.9453125 C3.34689575 10.0806839 2.9750415 9.2160553 2.59191895 8.32522583 C2.25156616 7.52454681 1.91121338 6.7238678 1.56054688 5.89892578 C1.2585437 5.1927713 0.95654053 4.48661682 0.64538574 3.75906372 C0 2 0 2 0 0 Z " fill="#0B88C9" transform="translate(1709,388)"/>
<path d="M0 0 C3.3 0 6.6 0 10 0 C10 3.63 10 7.26 10 11 C13.63 11 17.26 11 21 11 C21 13.97 21 16.94 21 20 C17.37 20 13.74 20 10 20 C10.14011038 23.81279106 10.28680438 27.62512562 10.4375 31.4375 C10.47681641 32.52611328 10.51613281 33.61472656 10.55664062 34.73632812 C10.61948242 36.28803711 10.61948242 36.28803711 10.68359375 37.87109375 C10.72025146 38.82943115 10.75690918 39.78776855 10.79467773 40.77514648 C10.75834424 42.97138925 10.75834424 42.97138925 12 44 C13.51928038 44.07179964 15.04167482 44.08392007 16.5625 44.0625 C17.38878906 44.05347656 18.21507812 44.04445313 19.06640625 44.03515625 C19.70449219 44.02355469 20.34257813 44.01195312 21 44 C21 46.64 21 49.28 21 52 C16.09335048 53.63554984 11.11425143 53.63496779 6 53 C3.02638914 50.78436838 1.63040207 49.26080415 0 46 C-0.08510205 44.0406396 -0.10717656 42.07837206 -0.09765625 40.1171875 C-0.09443359 38.95058594 -0.09121094 37.78398437 -0.08789062 36.58203125 C-0.07951172 35.35871094 -0.07113281 34.13539063 -0.0625 32.875 C-0.05798828 31.64394531 -0.05347656 30.41289062 -0.04882812 29.14453125 C-0.0370133 26.09630608 -0.02054028 23.04817686 0 20 C-1.65 20 -3.3 20 -5 20 C-5 17.36 -5 14.72 -5 12 C-3.35 12 -1.7 12 0 12 C0 8.04 0 4.08 0 0 Z " fill="#0C88C9" transform="translate(1841,377)"/>
<path d="M0 0 C3.3 0 6.6 0 10 0 C10 3.63 10 7.26 10 11 C13.63 11 17.26 11 21 11 C21 13.97 21 16.94 21 20 C17.37 20 13.74 20 10 20 C10.14011038 23.81279106 10.28680438 27.62512562 10.4375 31.4375 C10.47681641 32.52611328 10.51613281 33.61472656 10.55664062 34.73632812 C10.61948242 36.28803711 10.61948242 36.28803711 10.68359375 37.87109375 C10.72025146 38.82943115 10.75690918 39.78776855 10.79467773 40.77514648 C10.75834424 42.97138925 10.75834424 42.97138925 12 44 C13.51928038 44.07179964 15.04167482 44.08392007 16.5625 44.0625 C17.38878906 44.05347656 18.21507812 44.04445313 19.06640625 44.03515625 C19.70449219 44.02355469 20.34257813 44.01195312 21 44 C21.1875 47.375 21.1875 47.375 21 51 C16.33834068 54.10777288 11.45528913 53.73620636 6 53 C2.51757609 50.47353559 1.34773178 49.04319535 0 45 C-0.08266486 43.08093083 -0.10740663 41.15910526 -0.09765625 39.23828125 C-0.09443359 38.12001953 -0.09121094 37.00175781 -0.08789062 35.84960938 C-0.07951172 34.68236328 -0.07113281 33.51511719 -0.0625 32.3125 C-0.05798828 31.13365234 -0.05347656 29.95480469 -0.04882812 28.74023438 C-0.03703273 25.82677211 -0.0205727 22.91341137 0 20 C-1.65 20 -3.3 20 -5 20 C-5 17.36 -5 14.72 -5 12 C-3.35 12 -1.7 12 0 12 C0 8.04 0 4.08 0 0 Z " fill="#0A88C8" transform="translate(720,377)"/>
<path d="M0 0 C2.97 0 5.94 0 9 0 C9 3.63 9 7.26 9 11 C12.96 11 16.92 11 21 11 C21 13.97 21 16.94 21 20 C17.04 20 13.08 20 9 20 C9.14035305 23.62528953 9.28702517 27.25012883 9.4375 30.875 C9.47681641 31.90753906 9.51613281 32.94007813 9.55664062 34.00390625 C9.61948242 35.48310547 9.61948242 35.48310547 9.68359375 36.9921875 C9.72025146 37.90339355 9.75690918 38.81459961 9.79467773 39.75341797 C9.86577065 42.03483481 9.86577065 42.03483481 11 44 C13.97 44 16.94 44 20 44 C20 46.64 20 49.28 20 52 C15.38471264 53.53842912 10.8197958 53.52848638 6 53 C2.99802536 51.19881522 1.54833634 50.09667268 0 47 C-0.08543895 44.89471067 -0.10714725 42.78668843 -0.09765625 40.6796875 C-0.09443359 39.42285156 -0.09121094 38.16601562 -0.08789062 36.87109375 C-0.07951172 35.55238281 -0.07113281 34.23367188 -0.0625 32.875 C-0.05748489 31.53515789 -0.05292201 30.195314 -0.04882812 28.85546875 C-0.03701086 25.57026794 -0.02053617 22.28515603 0 19 C-1.65 19 -3.3 19 -5 19 C-5 16.69 -5 14.38 -5 12 C-3.35 12 -1.7 12 0 12 C0 8.04 0 4.08 0 0 Z " fill="#0786C8" transform="translate(927,377)"/>
<path d="M0 0 C3.3 0 6.6 0 10 0 C10.33 2.31 10.66 4.62 11 7 C11.86625 5.824375 11.86625 5.824375 12.75 4.625 C14.89739923 2.1197009 15.92379218 0.99524371 19 0 C22.25 -0.125 22.25 -0.125 25 0 C25 3.3 25 6.6 25 10 C23.7625 10.2475 22.525 10.495 21.25 10.75 C17.45915472 11.70106012 15.42859424 12.824146 13 16 C11.13399898 19.13569485 10.71259222 21.57235622 10.5859375 25.203125 C10.52792969 26.67265625 10.52792969 26.67265625 10.46875 28.171875 C10.42234375 29.69554687 10.42234375 29.69554687 10.375 31.25 C10.31699219 32.796875 10.31699219 32.796875 10.2578125 34.375 C10.16368744 36.91637663 10.08076069 39.45816358 10 42 C6.7 42 3.4 42 0 42 C0 28.14 0 14.28 0 0 Z " fill="#0C89C9" transform="translate(1150,388)"/>
<path d="M0 0 C3.3 0 6.6 0 10 0 C10.33 2.31 10.66 4.62 11 7 C11.86625 5.824375 11.86625 5.824375 12.75 4.625 C14.89739923 2.1197009 15.92379218 0.99524371 19 0 C22.25 -0.125 22.25 -0.125 25 0 C25 3.3 25 6.6 25 10 C23.783125 10.226875 22.56625 10.45375 21.3125 10.6875 C17.02920697 11.75072877 14.7995683 13.52174848 12 17 C11.0268319 19.9195043 10.8070454 22.05444951 10.68359375 25.10546875 C10.64169922 26.08837891 10.59980469 27.07128906 10.55664062 28.08398438 C10.51732422 29.10814453 10.47800781 30.13230469 10.4375 31.1875 C10.39431641 32.22326172 10.35113281 33.25902344 10.30664062 34.32617188 C10.20055737 36.88395702 10.09977414 39.44196098 10 42 C6.7 42 3.4 42 0 42 C0 28.14 0 14.28 0 0 Z " fill="#0D89C9" transform="translate(1806,388)"/>
<path d="M0 0 C4.38773175 2.19386588 7.09334197 4.44520582 9 9 C9.57057837 14.23030176 8.84948106 17.57839146 6 22 C3.72592877 24.61862748 2.09679557 25.80375063 -1.3359375 26.41796875 C-5.71511648 26.66125647 -8.98564303 26.53903514 -12.5 23.75 C-16.38388057 19.47773138 -17.47528008 16.97145743 -17.3203125 11.02734375 C-16.65964304 6.8457895 -14.04941967 4.16602186 -11.3125 1.125 C-7.59344385 -0.68427056 -4.04760663 -0.63243854 0 0 Z " fill="#F9FCFD" transform="translate(774,396)"/>
<path d="M0 0 C4.11639609 1.77753468 6.76553623 4.11037788 9 8 C9.84098756 13.07990466 9.56141503 16.87716993 7.25 21.5 C4.64900113 24.38999874 2.70611786 25.73322521 -1.1484375 26.3359375 C-6.5930041 26.43145621 -9.74878427 25.73277479 -14 22 C-16.58403659 17.76996751 -16.53622695 13.82604252 -16 9 C-14.74465923 5.4321894 -13.67298992 3.5768485 -10.8125 1.125 C-7.08483876 -0.3660645 -3.96245073 -0.5879246 0 0 Z " fill="#FBFDFE" transform="translate(1247,396)"/>
<path d="M0 0 C3.22916644 2.75428902 4.89144202 4.87044941 5.41015625 9.18359375 C5.57951194 14.13908844 5.53459478 17.93261628 2.125 21.8125 C-1.61009555 24.99831679 -4.98959789 25.28259909 -9.7265625 25.09375 C-12.81103555 24.68996444 -14.5411568 23.87177341 -16.875 21.8125 C-20.18265148 17.02210821 -20.63677561 12.45798772 -19.875 6.8125 C-18.574544 3.66402757 -17.3235648 2.19509939 -14.75 0 C-9.77021813 -2.05686643 -4.97978187 -2.05686643 0 0 Z " fill="#FBFDFE" transform="translate(1639.875,397.1875)"/>
<path d="M0 0 C2.97 0 5.94 0 9 0 C9 18.81 9 37.62 9 57 C6.03 57 3.06 57 0 57 C0 38.19 0 19.38 0 0 Z " fill="#0384C7" transform="translate(1373,373)"/>
<path d="M0 0 C2.701875 -0.061875 5.40375 -0.12375 8.1875 -0.1875 C9.02949951 -0.21481201 9.87149902 -0.24212402 10.73901367 -0.27026367 C15.31952096 -0.32089807 18.28298447 0.01917007 22 3 C23.72370774 6.44741547 23.50306672 10.23035339 23 14 C21.12379387 16.50160818 19.76108697 17.61945652 17 19 C14.11426648 19.07199934 11.25934885 19.0927068 8.375 19.0625 C5.61125 19.041875 2.8475 19.02125 0 19 C0 12.73 0 6.46 0 0 Z " fill="#FCFDFE" transform="translate(1060,384)"/>
<path d="M0 0 C2.97 0 5.94 0 9 0 C9 13.53 9 27.06 9 41 C6.03 41 3.06 41 0 41 C0 27.47 0 13.94 0 0 Z " fill="#0384C7" transform="translate(1396,389)"/>
<path d="M0 0 C2.27280919 2.07823719 3.60420039 3.90120887 4.82421875 6.72265625 C5.13037109 7.42583984 5.43652344 8.12902344 5.75195312 8.85351562 C6.21504883 9.94696289 6.21504883 9.94696289 6.6875 11.0625 C7.00783203 11.79533203 7.32816406 12.52816406 7.65820312 13.28320312 C10 18.72076559 10 18.72076559 10 21 C3.73 21 -2.54 21 -9 21 C-6.29768544 13.79382785 -3.60075388 6.801424 0 0 Z " fill="#F7FBFD" transform="translate(631,387)"/>
<path d="M0 0 C1.89105469 0.00966797 1.89105469 0.00966797 3.8203125 0.01953125 C6.875 0.1875 6.875 0.1875 7.875 1.1875 C8.25 4.5 8.25 4.5 7.875 8.1875 C4.62387634 11.43862366 2.13238084 13.06887917 -2.4375 13.5 C-6.125 13.1875 -6.125 13.1875 -9.125 11.625 C-11.125 9.1875 -11.125 9.1875 -11.125 5.5625 C-9.30816805 -0.56930782 -5.69051283 -0.06426657 0 0 Z " fill="#F7FBFD" transform="translate(1343.125,410.8125)"/>
<path d="M0 0 C1.25167969 0.01546875 2.50335937 0.0309375 3.79296875 0.046875 C6.8125 0.25 6.8125 0.25 7.8125 1.25 C8.34355556 5.14440747 8.13020195 6.78881975 5.875 10.0625 C1.9862514 12.84017757 -1.42782896 13.58207007 -6.1875 13.25 C-9.92185785 11.7812843 -9.92185785 11.7812843 -11.1875 9.25 C-11.5 6.3125 -11.5 6.3125 -11.1875 3.25 C-7.85038728 -0.31124716 -4.69215656 -0.09724677 0 0 Z " fill="#F7FBFD" transform="translate(896.1875,410.75)"/>
<path d="M0 0 C2.4220374 1.83895432 3.36863773 3.31614595 5 6 C5 7.32 5 8.64 5 10 C-1.93 10 -8.86 10 -16 10 C-14.79419684 2.76518103 -14.79419684 2.76518103 -10.87890625 -0.140625 C-7.18620065 -1.82959638 -3.73881762 -1.3745653 0 0 Z " fill="#F5FAFC" transform="translate(980,396)"/>
<path d="M0 0 C6.17741752 0.39887299 6.17741752 0.39887299 8.81640625 2.35546875 C11.52787973 5.44983042 12.109375 6.91824169 12.109375 11.08984375 C5.179375 11.08984375 -1.750625 11.08984375 -8.890625 11.08984375 C-7.80892288 5.68133315 -6.82115596 4.62732162 -2.890625 1.08984375 C-1.890625 0.08984375 -1.890625 0.08984375 0 0 Z " fill="#F5FAFC" transform="translate(1477.890625,394.91015625)"/>
<path d="M0 0 C3.8271837 2.06079122 6.63072705 3.75525387 8 8 C8 8.99 8 9.98 8 11 C1.07 11 -5.86 11 -13 11 C-12 5 -12 5 -9.3125 2.125 C-5.63900985 -0.23157858 -4.25109897 -0.79708106 0 0 Z " fill="#F5FAFC" transform="translate(1779,395)"/>
<path d="M0 0 C4.42727286 3.16233776 4.90980952 4.54904761 6 10 C-0.93 10 -7.86 10 -15 10 C-14 4 -14 4 -12.5625 1.625 C-8.53860913 -0.92673567 -4.62208003 -0.86757489 0 0 Z " fill="#F9FCFD" transform="translate(1125,396)"/>
<path d="M0 0 C3.63 0 7.26 0 11 0 C11 3.63 11 7.26 11 11 C7.37 11 3.74 11 0 11 C0 7.37 0 3.74 0 0 Z " fill="#108ACA" transform="translate(1871,419)"/>
<path d="M0 0 C3.63 0 7.26 0 11 0 C11 3.63 11 7.26 11 11 C7.37 11 3.74 11 0 11 C0 7.37 0 3.74 0 0 Z " fill="#108ACA" transform="translate(1508,419)"/>
<path d="M0 0 C3.63 0 7.26 0 11 0 C11 3.63 11 7.26 11 11 C7.37 11 3.74 11 0 11 C0 7.37 0 3.74 0 0 Z " fill="#108ACA" transform="translate(1003,419)"/>
<path d="M0 0 C3.63 0 7.26 0 11 0 C11 2.97 11 5.94 11 9 C7.37 9 3.74 9 0 9 C0 6.03 0 3.06 0 0 Z " fill="#138CCA" transform="translate(1395,373)"/>
</svg>
